<svg width="237" height="237" viewBox="0 0 237 237" fill="none" xmlns="http://www.w3.org/2000/svg">
<path d="M118.984 195.542C118.375 201.525 113.449 204.38 107.676 203.792C105.725 203.593 103.655 203.009 101.652 202.006L101.973 200.174C104.165 202.182 106.402 203.236 108.432 203.443C112.464 203.854 115.757 201.073 116.347 195.274C116.966 189.212 113.738 185.341 109.336 184.892C108.176 184.774 106.934 184.94 105.659 185.422L104.765 194.2L102.128 193.931L103.005 185.338C105.398 184.597 107.716 184.328 109.825 184.541C115.544 185.123 119.635 189.162 118.984 195.542Z" fill="#FF7146"/>
<path d="M100.997 183.407L95.9352 197.857L93.4356 196.982L95.9658 189.757L95.9407 189.747C92.7408 194.633 88.856 196.669 85.8089 194.311L86.7723 192.683C89.6282 195.508 93.1416 193.651 96.315 188.756L98.4957 182.531L100.997 183.407Z" fill="#FF7146"/>
<path d="M89.6787 184.105C87.4462 188.137 81.8754 187.475 76.5442 185.946C75.48 187.869 75.9988 189.338 77.4822 190.159C79.174 191.096 81.7236 191.084 84.084 190.212L83.5596 192.254C81.4913 192.106 79.2044 191.476 77.3975 190.475C74.7094 188.986 73.1122 186.678 74.7932 183.641L80.1579 173.956L82.4762 175.238L81.3326 177.301C83.4506 176.597 85.8191 176.636 87.5583 177.598C90.2927 179.115 91.0142 181.694 89.6787 184.105ZM81.153 177.626L76.7251 185.621C82.5682 187.373 85.5377 186.112 87.1667 183.168C88.5409 180.69 87.8877 178.753 86.2418 177.841C84.8761 177.084 82.7895 177.079 81.153 177.626Z" fill="#FF7146"/>
<path d="M81.2578 169.304L68.0584 184.033L66.0878 182.266L67.4119 180.788C65.4034 181.085 63.5152 180.494 62.2135 179.33C59.907 177.261 59.3409 173.449 62.752 169.644C66.1259 165.878 70.9641 165.556 73.9431 168.223C74.791 168.984 75.4859 170.033 75.8935 171.323L79.2859 167.537L81.2578 169.304ZM64.7123 171.187C61.7427 174.499 61.4913 177.757 63.3446 179.417C64.3689 180.336 65.9674 180.736 67.6964 180.472L75.6472 171.599C75.2855 170.456 74.7302 169.568 74.0208 168.933C71.5944 166.758 67.6632 167.893 64.7123 171.187Z" fill="#FF7146"/>
<path d="M67.3243 162.635L52.1243 173.35L50.5972 171.186L59.193 165.124L59.1618 165.082C54.3795 167.125 50.6392 166.326 49.0358 164.052C47.7236 162.191 48.0162 159.616 50.4204 157.922L59.4934 151.527L61.0192 153.692L51.8426 160.032C49.9811 161.344 49.6368 163.109 50.5225 164.367C51.6825 166.012 55.6447 166.85 61.1 163.782L65.7984 160.47L67.3243 162.635Z" fill="#FF7146"/>
<path d="M58.4603 148.948L44.6984 155.651L43.5386 153.27L57.3005 146.566L58.4603 148.948ZM41.9577 157.163C41.2193 157.523 40.334 157.217 39.974 156.479C39.614 155.741 39.9207 154.855 40.6578 154.495C41.3961 154.135 42.2814 154.441 42.6415 155.179C43.0015 155.918 42.6958 156.802 41.9577 157.163Z" fill="#FF7146"/>
<path d="M48.5015 147.456C44.2291 148.792 40.3634 147.172 38.5682 141.432C38.1004 139.94 37.8012 138.093 37.7999 136.315L39.6725 136.09C38.8038 138.194 38.7151 140.304 39.1826 141.795C40.2102 145.081 43.5895 146.216 47.8123 144.896C52.3622 143.471 54.599 140.329 53.5392 136.941C53.0878 135.501 51.808 134.069 49.804 132.81L51.4544 131.877C52.5881 133.103 53.373 134.551 53.8247 135.992C55.3421 140.846 53.6582 145.843 48.5015 147.456Z" fill="#FF7146"/>
<path d="M43.7604 125.309C38.3834 125.297 35.3429 121.873 35.3535 117.211C35.3547 116.283 35.4901 115.305 35.7561 114.271L32.4713 114.264L32.4774 111.615L51.0738 111.652L51.0679 114.303L47.6769 114.296C50.2186 115.123 51.4597 117.139 51.4559 119.231C51.4495 122.198 48.9539 125.319 43.7604 125.309ZM45.9819 114.292L36.1534 114.272C35.9404 115.066 35.8321 115.807 35.8323 116.522C35.8242 120.285 38.6266 122.807 43.7924 122.817C48.4549 122.826 50.8174 120.606 50.8225 118.353C50.8255 116.5 49.2134 114.696 45.9819 114.292Z" fill="#FF7146"/>
<path d="M43.3792 108.106C38.3803 106.919 36.7607 102.397 37.6414 98.6877C38.4307 95.3629 41.219 92.6776 45.3913 93.6702C45.9588 93.8044 46.5317 94.0217 47.1405 94.3303L44.454 105.641C49.0129 106.614 52.3478 105.065 53.0258 102.205C53.448 100.429 52.7463 98.1108 50.694 95.5289L52.6255 95.4156C53.7075 97.7407 53.895 100.043 53.4175 102.054C52.3957 106.355 48.3262 109.281 43.3792 108.106ZM46.2478 96.4842C45.7058 96.2475 45.2026 96.0728 44.6625 95.9447C40.8491 95.0386 38.5235 96.5812 38.0089 98.7451C37.4351 101.168 39.2837 104.382 44.0959 105.551L46.2478 96.4842Z" fill="#FF7146"/>
<path d="M54.47 94.6482L52.9892 93.4459C55.5669 92.0312 56.9532 90.2275 57.6588 88.7444C58.6355 86.6883 58.5149 84.7237 57.1971 83.9799C53.7754 82.3521 47.4434 91.5996 43.9509 89.9392C41.5838 88.8135 42.1157 85.2252 43.6975 81.9C44.4248 80.3689 45.3899 78.8345 46.4664 77.5571L48.0153 78.6175C46.155 79.8151 44.3129 81.8421 43.4812 83.588C42.5834 85.4781 42.5465 87.2204 43.8621 87.8461C46.3015 89.0055 52.5325 79.9156 56.8607 81.9731C59.6146 83.3994 59.1982 86.9861 57.7543 90.023C56.9239 91.7685 55.7251 93.428 54.47 94.6482Z" fill="#FF7146"/>
<path d="M61.6793 81.9993L48.9598 73.4738L50.4342 71.2737L63.1537 79.7991L61.6793 81.9993ZM46.2747 71.8641C45.592 71.4062 45.4116 70.4877 45.8695 69.805C46.3261 69.1225 47.2446 68.9421 47.9273 69.4C48.6111 69.8564 48.7901 70.7751 48.3338 71.4589C47.8757 72.1403 46.9561 72.3222 46.2747 71.8641Z" fill="#FF7146"/>
<path d="M68.4193 82.0767L67.3211 80.5293C69.6389 79.9241 71.1956 79.0517 72.1098 78.0574C74.4387 75.5217 73.3921 72.0777 70.251 69.1928L68.9232 67.9752L68.8689 68.0333C69.9571 70.2552 69.624 72.5379 68.2609 74.0216C66.3256 76.1276 62.6393 76.7356 58.4447 72.8838C54.9133 69.641 54.3338 65.2603 56.8064 62.5675C57.6848 61.6114 59.0013 60.8433 60.7475 60.4686L59.9667 59.7514L61.7593 57.801L70.949 66.2388C75.1635 70.109 75.1829 75.4143 71.3309 79.6076C70.5268 80.4868 69.5482 81.3164 68.4193 82.0767ZM67.5598 66.7212L61.0826 60.7732C59.5395 61.082 58.4397 61.6537 57.7767 62.3764C55.6976 64.6394 57.2637 68.3793 60.112 70.9947C63.4497 74.0589 66.6772 74.5777 68.1816 72.9387C69.4167 71.5926 69.5163 69.0945 67.5598 66.7212Z" fill="#FF7146"/>
<path d="M79.3469 49.0691L86.0336 58.908L83.8431 60.3971L77.113 50.4944C75.966 48.8069 74.7509 48.5752 73.7653 49.2447C72.1883 50.3165 71.1142 53.5455 71.5287 57.2669L76.8757 65.1307L74.6851 66.6198L66.0773 53.9574L68.2692 52.468L71.1576 56.718C70.8385 52.2914 72.3099 49.1779 74.2599 47.8523C75.7705 46.8242 77.8279 46.8356 79.3469 49.0691Z" fill="#FF7146"/>
<path d="M84.4631 50.6679C82.63 45.8667 85.4557 41.9809 89.0192 40.6205C92.2125 39.4002 96.0024 40.192 97.5336 44.2029C97.7412 44.747 97.884 45.3442 97.9735 46.02L87.1079 50.1703C88.871 54.4866 92.0293 56.3716 94.7765 55.3219C96.4849 54.6701 98.0052 52.7842 98.9843 49.6317L100.166 51.1668C98.8517 53.3696 97.0528 54.8221 95.1229 55.5596C90.9907 57.1362 86.2777 55.4201 84.4631 50.6679ZM95.6872 46.4953C95.5774 45.9128 95.439 45.4003 95.24 44.8808C93.8422 41.2179 91.2551 40.1639 89.1768 40.9572C86.8498 41.8466 85.2334 45.1864 86.9761 49.8234L95.6872 46.4953Z" fill="#FF7146"/>
<path d="M102.435 52.7542L99.9988 37.646L102.613 37.2242L103.832 44.7781L103.859 44.7746C104.342 38.9577 106.786 35.3175 110.587 35.9392L110.516 37.8283C106.66 36.7065 104.457 40.012 104.001 45.8241L105.05 52.3321L102.435 52.7542Z" fill="#FF7146"/>
<path d="M121.549 43.107L121.581 42.7373L128.388 43.343L128.356 43.7127L121.549 43.107Z" fill="#FF7146"/>
<path d="M137.824 47.1676L142.303 35.582L144.798 36.5466L139.851 49.342C138.533 52.7518 140.308 54.7719 142.481 55.6129C144.631 56.4443 147.253 56.1232 148.571 52.7134L153.518 39.918L155.988 40.8733L151.509 52.4576C149.925 56.5594 146.227 57.4577 142.348 55.9582C138.445 54.4482 136.238 51.267 137.824 47.1676Z" fill="#AED2C6"/>
<path d="M175.424 53.7028L164.199 57.0291L164.579 68.813L162.254 67.1448L161.874 55.8159L156.043 57.5339C154.195 58.0664 153.146 58.6177 151.837 59.6672L150.653 58.819L161.883 55.5303L161.497 43.7105L163.822 45.3786L164.181 56.692L169.395 55.1507C171.17 54.6316 172.714 53.9793 174.238 52.8565L175.424 53.7028Z" fill="#AED2C6"/>
<path d="M171.206 64.8469L171.479 64.5962L176.113 69.6172L175.84 69.8679L171.206 64.8469Z" fill="#AED2C6"/>
<path d="M176.952 73.6394L187.532 67.1434L188.931 69.422L177.246 76.5981C174.132 78.5097 174.318 81.1904 175.538 83.1761C176.744 85.1383 179.023 86.4742 182.137 84.5613L193.822 77.3865L195.207 79.6415L184.627 86.1374C180.881 88.438 177.397 86.9111 175.222 83.3699C173.033 79.8051 173.207 75.9397 176.952 73.6394Z" fill="#AED2C6"/>
<path d="M180.267 92.3418L197.563 85.5266L198.533 87.9905L181.238 94.8056L180.267 92.3418Z" fill="#AED2C6"/>
<path d="M184.039 102.788L202.498 100.518L203.313 107.144C203.953 112.351 201.481 115.91 195.459 116.651C188.623 117.493 185.36 113.542 184.794 108.941L184.039 102.788ZM184.757 105.368L185.045 107.707C185.598 112.204 187.932 114.908 195.136 114.02C201.079 113.289 203.385 110.765 202.77 105.981L202.427 103.194L184.757 105.368Z" fill="#AED2C6"/>
<path d="M193.783 120.346C198.882 120.989 200.981 125.312 200.505 129.095C200.078 132.485 197.595 135.456 193.336 134.92C192.758 134.847 192.163 134.693 191.527 134.453L192.979 122.913C188.341 122.436 185.191 124.336 184.824 127.253C184.596 129.067 185.543 131.295 187.863 133.644L185.954 133.962C184.629 131.765 184.194 129.495 184.452 127.445C185.005 123.059 188.737 119.711 193.783 120.346ZM192.182 132.214C192.746 132.391 193.265 132.509 193.817 132.579C197.708 133.068 199.854 131.282 200.132 129.076C200.444 126.606 198.258 123.607 193.346 122.961L192.182 132.214Z" fill="#AED2C6"/>
<path d="M184.206 134.891L185.807 135.929C183.396 137.609 182.212 139.551 181.67 141.103C180.918 143.252 181.25 145.192 182.64 145.789C186.215 147.039 191.517 137.166 195.167 138.442C197.642 139.307 197.497 142.931 196.282 146.406C195.723 148.006 194.928 149.635 193.996 151.022L192.342 150.135C194.062 148.745 195.678 146.531 196.316 144.707C197.006 142.732 196.855 140.997 195.48 140.517C192.931 139.625 187.714 149.331 183.19 147.75C180.301 146.627 180.327 143.017 181.438 139.844C182.075 138.017 183.089 136.24 184.206 134.891Z" fill="#AED2C6"/>
<path d="M194.789 156.68C195.516 157.061 195.795 157.956 195.413 158.683C195.031 159.411 194.136 159.689 193.409 159.306C192.681 158.925 192.402 158.03 192.785 157.303C193.167 156.576 194.061 156.298 194.789 156.68ZM178.388 148.246L191.947 155.366L190.715 157.713L177.156 150.591L178.388 148.246Z" fill="#AED2C6"/>
<path d="M171.678 148.883L172.932 150.304C170.693 151.151 169.239 152.184 168.435 153.272C166.388 156.04 167.795 159.351 171.224 161.886L172.673 162.957L172.719 162.893C171.401 160.8 171.49 158.494 172.688 156.876C174.388 154.575 177.988 153.579 182.569 156.963C186.424 159.812 187.466 164.106 185.295 167.047C184.524 168.09 183.295 168.994 181.599 169.552L182.45 170.181L180.877 172.312L170.843 164.899C166.242 161.498 165.658 156.225 169.043 151.645C169.752 150.688 170.636 149.758 171.678 148.883ZM174.165 164.059L181.237 169.284C182.738 168.812 183.772 168.127 184.354 167.339C186.179 164.868 184.227 161.316 181.116 159.018C177.473 156.326 174.209 156.155 172.886 157.944C171.801 159.413 171.967 161.907 174.165 164.059Z" fill="#AED2C6"/>
<path d="M164.317 182.883L156.62 173.824L158.637 172.108L166.386 181.229C167.706 182.782 168.937 182.883 169.845 182.112C171.297 180.878 172.018 177.554 171.208 173.902L165.053 166.659L167.07 164.945L176.978 176.606L174.961 178.322L171.636 174.407C172.428 178.773 171.298 182.024 169.503 183.551C168.112 184.732 166.065 184.941 164.317 182.883Z" fill="#AED2C6"/>
<path d="M159.067 181.843C161.406 186.417 159.016 190.585 155.622 192.322C152.58 193.878 148.727 193.498 146.773 189.677C146.508 189.158 146.301 188.581 146.141 187.919L156.493 182.624C154.276 178.521 150.933 176.989 148.316 178.328C146.689 179.16 145.381 181.197 144.747 184.438L143.407 183.04C144.476 180.708 146.106 179.072 147.946 178.131C151.884 176.115 156.751 177.315 159.067 181.843ZM148.361 187.201C148.531 187.768 148.726 188.262 148.98 188.758C150.764 192.249 153.448 193.018 155.429 192.005C157.645 190.871 158.893 187.377 156.661 182.956L148.361 187.201Z" fill="#AED2C6"/>
<path d="M140.964 181.705L144.968 196.479L142.411 197.173L140.41 189.786L140.383 189.792C140.512 195.63 138.462 199.506 134.614 199.286L134.487 197.4C138.439 198.113 140.285 194.593 140.132 188.764L138.407 182.398L140.964 181.705Z" fill="#AED2C6"/>
</svg>
