<?xml version="1.0" encoding="utf-8"?>
<!-- Generator: Adobe Illustrator 17.0.0, SVG Export Plug-In . SVG Version: 6.00 Build 0)  -->
<!DOCTYPE svg PUBLIC "-//W3C//DTD SVG 1.1//EN" "http://www.w3.org/Graphics/SVG/1.1/DTD/svg11.dtd">
<svg version="1.1" id="Capa_1" xmlns="http://www.w3.org/2000/svg" xmlns:xlink="http://www.w3.org/1999/xlink" x="0px" y="0px"
	 width="200px" height="100px" viewBox="0 0 200 100" enable-background="new 0 0 200 100" xml:space="preserve">
<g>
	<path fill="#FF7146" d="M83.228,75.066c-4.718,2.434-9.444,4.421-13.964,4.421c-8.195,0-15.641-3.36-19.118-11.904l-7.157-20.779
		c-1.291-3.129-6.457-0.745-10.43,2.384l-0.795,0.646v16.739h-4.967V32.4c-11.374,0.05-16.59,7.55-16.59,13.609
		c0,4.172,2.334,6.556,4.917,6.556c2.235,0,4.47-4.073,4.47-7.947l3.775,1.142c0,4.818-3.924,7.351-7.997,7.351
		c-4.619,0-8.295-3.08-8.295-7.997c0-6.507,6.159-13.361,19.719-13.411h4.967v17.334l11.523-9.536
		c2.434-2.086,5.464-4.818,6.656-7.798h3.477L36.582,45.761c4.718-2.583,9.735-3.527,11.424,0.596l6.419,21.058
		c3.974,8.444,10.171,11.575,15.038,11.575c3.775,0,7.897-2.483,12.914-6.904L83.228,75.066z"/>
</g>
<path fill="#FF7146" d="M59.883,69.336l0.892-2.649c3.136,2.062,5.518,3.424,7.666,3.424c5.755,0,8.891-4.424,8.891-10.995v-5.412
	h-0.129c-1.89,5.24-5.584,7.645-8.719,7.645c-4.467,0-8.504-4.51-8.504-11.597V35.794h4.295v14.904c0,6.357,2.491,9.363,5.412,9.363
	c2.878,0,6.357-3.049,7.645-8.633V35.794h4.295v20.23c0,9.149-6.528,15.076-15.634,15.076C63.974,71.1,62.116,69.98,59.883,69.336z"
	/>
<path fill="#FF7146" d="M85.666,53.704c0-7.474,8.418-10.91,17.18-12.928c0-3.565-1.89-5.24-4.639-5.24
	c-3.136,0-6.743,2.018-9.406,5.111l-0.859-3.307c3.049-1.417,6.786-2.319,10.137-2.319c4.982,0,9.063,2.019,9.063,7.645V60.62
	h-4.295v-3.823c-2.448,2.663-5.841,4.467-9.063,4.467C88.715,61.264,85.666,58.171,85.666,53.704z M102.846,56.196V41.378
	c-9.664,2.105-12.885,6.228-12.885,11.683c0,4.596,2.448,6.829,5.498,6.829C97.993,59.889,100.956,58.257,102.846,56.196z"/>
<path fill="#FF7146" d="M112.468,60.62V35.794h4.295v12.413h0.043c2.277-9.191,8.376-25.814,22.85-22.85l-0.73,3.221
	c-14.517-4.338-19.5,12.155-22.163,21.347V60.62H112.468z"/>
<path fill="#FF7146" d="M124.367,53.704c0-7.474,8.418-10.91,17.18-12.928c0-3.565-1.89-5.24-4.639-5.24
	c-3.136,0-6.743,2.018-9.406,5.111l-0.859-3.307c3.05-1.417,6.786-2.319,10.137-2.319c4.983,0,9.063,2.019,9.063,7.645V60.62h-4.295
	v-3.823c-2.449,2.663-5.841,4.467-9.063,4.467C127.416,61.264,124.367,58.171,124.367,53.704z M141.547,56.196V41.378
	c-9.664,2.105-12.886,6.228-12.886,11.683c0,4.596,2.449,6.829,5.498,6.829C136.694,59.889,139.657,58.257,141.547,56.196z"/>
<path fill="#514E4D" d="M150.267,48.937c0-8.59,5.283-13.873,12.586-13.873c1.503,0,3.092,0.215,4.768,0.687v-5.283h1.717V60.62
	h-1.717v-5.798c-1.074,4.295-4.296,6.357-7.688,6.357C155.249,61.178,150.267,57.226,150.267,48.937z M167.62,51.471V36.18
	c-1.59-0.472-3.093-0.687-4.511-0.687c-6.743,0-11.124,5.154-11.124,13.444c0,7.989,4.338,11.726,8.462,11.726
	C164.141,60.662,167.62,57.699,167.62,51.471z"/>
<path fill="#514E4D" d="M174.621,70.369v-1.718c2.664,1.331,5.069,1.933,7.173,1.933c6.701,0,10.566-5.97,10.566-14.217v-1.89
	h-0.129c-1.503,4.467-4.681,6.958-7.988,6.958c-4.596,0-9.235-3.994-9.235-13.143c0-7.388,3.995-13.272,9.75-13.272
	c2.277,0,4.896,0.945,7.602,3.135v-2.362h1.718v20.23c0,9.278-5.669,15.119-13.959,15.119
	C178.402,71.142,176.555,70.885,174.621,70.369z M192.36,50.698V38.586c-2.62-2.019-5.025-2.921-7.044-2.921
	c-5.369,0-8.59,5.97-8.59,12.627c0,8.59,3.651,12.627,7.43,12.627C187.979,60.92,191.974,57.269,192.36,50.698z"/>
</svg>
